<svg xmlns="http://www.w3.org/2000/svg" data-name="Layer 1" viewBox="0 0 100 125" x="0px" y="0px"><defs><style>.cls-1{fill:none;stroke:#afbcd8;stroke-linecap:round;stroke-linejoin:round;stroke-width:2px;}</style></defs><title>Artboard 14</title><path class="cls-1" d="M53.26,82.88l25-.29A43.14,43.14,0,1,1,76,15.77L58.55,16"/><line class="cls-1" x1="6.77" y1="49.32" x2="90.31" y2="48.35"/><line class="cls-1" x1="65.28" y1="26.15" x2="65.21" y2="19.66"/><polyline class="cls-1" points="69.88 22.66 58.63 22.79 58.71 29.74"/><polyline class="cls-1" points="54.92 29.79 72.87 29.58 82.98 29.46"/><line class="cls-1" x1="70.94" y1="38.34" x2="70.88" y2="32.69"/><line class="cls-1" x1="79.89" y1="35.44" x2="55.74" y2="35.72"/><polyline class="cls-1" points="66.23 35.6 66.31 42.3 59.36 42.38"/><polyline class="cls-1" points="65.5 44.79 90.5 44.5 90.65 56.88 62.34 57.21"/><line class="cls-1" x1="69.25" y1="57.13" x2="69.33" y2="63.62"/><polyline class="cls-1" points="87.15 61.91 63.07 62.19 63.15 69.14 56.64 69.21"/><line class="cls-1" x1="81.79" y1="70.09" x2="62.49" y2="70.32"/><polyline class="cls-1" points="77.11 68.97 77.19 75.67 57.6 75.9 47.23 76.02"/><line class="cls-1" x1="57.43" y1="82.83" x2="57.35" y2="75.91"/><ellipse class="cls-1" cx="37.64" cy="27.98" rx="13.14" ry="10.18" transform="translate(-9.13 24.51) rotate(-32.39)"/><ellipse class="cls-1" cx="40.17" cy="31.97" rx="7.21" ry="5.59" transform="translate(-10.88 26.49) rotate(-32.39)"/></svg>